<svg id="Capa_1" data-name="Capa 1" xmlns="http://www.w3.org/2000/svg" width="18" height="15.91" viewBox="0 0 18 15.91"><title>Sin título-3</title><path d="M17.76,0.33S12.5-.77,10,1.73a1.32,1.32,0,0,1-2,0C5.5-.77.24,0.33,0.24,0.33s-1,4.58.94,7.23v7.85a0.59,0.59,0,0,0,1.19,0V8.69A4.5,4.5,0,0,0,8,8.09a1.32,1.32,0,0,1,2,0,4.5,4.5,0,0,0,6.36,0C18.86,5.59,17.76.33,17.76,0.33ZM4.5,5.92a3.05,3.05,0,0,1-2.27-1,3.06,3.06,0,0,1,4.55,0A3.05,3.05,0,0,1,4.5,5.92Zm9,0a3.05,3.05,0,0,1-2.27-1,3.06,3.06,0,0,1,4.55,0A3.05,3.05,0,0,1,13.5,5.92Z" transform="translate(0 -0.09)" fill="#fff"/></svg>