<svg id="Capa_1" data-name="Capa 1" xmlns="http://www.w3.org/2000/svg" width="16" height="15.95" viewBox="0 0 16 15.95"><title>Sin título-12</title><path d="M8,9.33A1.66,1.66,0,1,0,6.34,7.68,1.66,1.66,0,0,0,8,9.33Z" fill="#fff"/><path d="M12.41,9.33a1.66,1.66,0,1,0-1.66-1.66A1.66,1.66,0,0,0,12.41,9.33Z" fill="#fff"/><path d="M3.59,13.75a1.66,1.66,0,1,0-1.66-1.66A1.66,1.66,0,0,0,3.59,13.75Z" fill="#fff"/><path d="M8,13.75a1.66,1.66,0,1,0-1.66-1.66A1.66,1.66,0,0,0,8,13.75Z" fill="#fff"/><path d="M12.41,13.75a1.66,1.66,0,1,0-1.66-1.66A1.66,1.66,0,0,0,12.41,13.75Z" fill="#fff"/><path d="M13.19,1.06V0H11.63V1.06H4.37V0H2.81V1.06H0V16H16V1.06H13.19ZM15.45,15.4H0.55V4.64h14.9V15.4Z" fill="#fff"/><path d="M4.21,7.68l0.6-.61a0.44,0.44,0,1,0-.63-0.63L3.59,7,3,6.44a0.44,0.44,0,1,0-.63.63L3,7.68l-0.61.6A0.44,0.44,0,0,0,3,8.91l0.6-.6,0.6,0.6a0.44,0.44,0,0,0,.63-0.63Z" fill="#fff"/></svg>