<svg id="Capa_1" data-name="Capa 1" xmlns="http://www.w3.org/2000/svg" width="13" height="15" viewBox="0 0 13 15"><title>Sin título-6</title><path d="M12.68,1.43H8.79V0.32A0.32,0.32,0,0,0,8.47,0H4.53a0.32,0.32,0,0,0-.32.32V1.43H0.32A0.32,0.32,0,0,0,0,1.75V3.18a0.32,0.32,0,0,0,.32.32h0.6V14.68a0.32,0.32,0,0,0,.32.32H11.77a0.32,0.32,0,0,0,.32-0.32V3.5h0.6A0.32,0.32,0,0,0,13,3.18V1.75A0.32,0.32,0,0,0,12.68,1.43ZM4.85,0.64h3.3V1.43H4.85V0.64Zm6.6,13.72H1.55V3.5h9.9V14.36Zm0.91-11.5H0.64V2.07H12.36V2.86Z" transform="translate(0)" fill="#c0292e"/><path d="M3.59,12.29A0.32,0.32,0,0,0,3.91,12V5.89a0.32,0.32,0,1,0-.64,0V12A0.31,0.31,0,0,0,3.59,12.29Z" transform="translate(0)" fill="#c0292e"/><path d="M6.5,12.29A0.32,0.32,0,0,0,6.82,12V5.89a0.32,0.32,0,1,0-.64,0V12A0.32,0.32,0,0,0,6.5,12.29Z" transform="translate(0)" fill="#c0292e"/><path d="M9.41,12.29A0.32,0.32,0,0,0,9.73,12V5.89a0.32,0.32,0,1,0-.64,0V12A0.32,0.32,0,0,0,9.41,12.29Z" transform="translate(0)" fill="#c0292e"/></svg>