<svg id="Capa_1" data-name="Capa 1" xmlns="http://www.w3.org/2000/svg" width="29.64" height="30" viewBox="0 0 29.64 30"><title>Sin título-10</title><path d="M29.51,26.15a0.79,0.79,0,0,0-.23-0.5L17.46,13.84a9,9,0,1,0-4.75,4.75l3.88,3.88a0.81,0.81,0,0,0,.6.24l2.12-.07-0.07,2.12a0.81,0.81,0,0,0,.83.84l2.12-.07-0.08,2.12a0.83,0.83,0,0,0,.24.6,0.78,0.78,0,0,0,.6.24l2.12-.07L25,30.52a0.81,0.81,0,0,0,.25.62,0.81,0.81,0,0,0,.55.22H25.9L29.15,31a0.81,0.81,0,0,0,.72-0.88ZM8.12,9.25a2.55,2.55,0,1,1,0-3.61A2.55,2.55,0,0,1,8.12,9.25Z" transform="translate(-0.24 -1.36)" fill="#fff"/></svg>