<svg id="Capa_1" data-name="Capa 1" xmlns="http://www.w3.org/2000/svg" width="15.04" height="14.92" viewBox="0 0 15.04 14.92"><title>icono-configuracion</title><path d="M2.86,45.6a0.2,0.2,0,0,0-.11.34l1,1a1.22,1.22,0,0,1,0,1.72l-0.62.62a1.22,1.22,0,0,1-1.72,0l-1-1a0.22,0.22,0,0,0-.41.14A3.31,3.31,0,0,0,3.75,52.2,1.4,1.4,0,0,1,5,52.56l7.5,7.5A1.46,1.46,0,0,0,14.57,58h0L7,50.57a1.4,1.4,0,0,1-.4-1.19A3.31,3.31,0,0,0,2.86,45.6Zm10.8,13a0.43,0.43,0,0,1-.61.61L5.42,51.56A0.43,0.43,0,0,1,6,51Z" transform="translate(0.04 -45.57)" fill="#3472b8"/></svg>