<svg id="Capa_1" data-name="Capa 1" xmlns="http://www.w3.org/2000/svg" width="27" height="29.89" viewBox="0 0 27 29.89"><title>Sin título-11</title><path d="M13.56,13.12a1.48,1.48,0,0,1-1.48-1.48V1.48a1.48,1.48,0,0,1,3,0V11.64A1.48,1.48,0,0,1,13.56,13.12Z" transform="translate(-0.06)" fill="#fff"/><path d="M13.56,29.89A13.49,13.49,0,0,1,6.62,4.83,1.48,1.48,0,1,1,8.14,7.36a10.53,10.53,0,1,0,16,9,10.46,10.46,0,0,0-5.12-9,1.48,1.48,0,0,1,1.53-2.54A13.49,13.49,0,0,1,13.56,29.89Z" transform="translate(-0.06)" fill="#fff"/></svg>