<svg id="Capa_1" data-name="Capa 1" xmlns="http://www.w3.org/2000/svg" width="551.39" height="195" viewBox="0 0 551.39 195"><title>Sin título-8</title><path d="M0.36,103.22a3.54,3.54,0,0,0,.43-1.43A14.17,14.17,0,0,1,14.18,91.24c2.23,0,4.46,0,6.69,0a1.29,1.29,0,0,0,1.34-.64A4.09,4.09,0,0,1,24.34,89a13.12,13.12,0,0,1,9.82,0,4.48,4.48,0,0,1,2.38,1.89,0.59,0.59,0,0,0,.6.36c0.26,0,.52,0,0.78,0h109.5A14.16,14.16,0,0,1,161.3,101a15.31,15.31,0,0,1,.7,4.86c0,8.2,0,16.41,0,24.61,0,1,.28,1.12,1.17,1.12q193.56,0,387.12,0c0.29,0,.58,0,0.87,0a0.48,0.48,0,0,1,.61.59c0,1.29,0,2.58,0,3.88a0.44,0.44,0,0,1-.57.53c-0.29,0-.58,0-0.87,0H163.48c-0.29,0-.58,0-0.87,0-0.45,0-.67.1-0.61,0.58a5.4,5.4,0,0,1,0,.68c0,13.92,0,27.84,0,41.76a14,14,0,0,1-10.76,13.68,16,16,0,0,1-3.94.4H15c-7.51,0-12.94-4.45-14.48-11.81a1.12,1.12,0,0,0-.18-0.31Q0.36,142.37.36,103.22Zm80.83,80.35a42.3,42.3,0,0,0,42.26-42.15C123.58,118.28,104.78,99.1,81.81,99A42.31,42.31,0,1,0,81.19,183.58Z" transform="translate(-0.36 0.46)" fill="#1b365e"/><path d="M122.26-.46C124.34,0.36,125,1.9,125,4.09c-0.06,13.18,0,26.35,0,39.53,0,2.78-1.38,4.15-4.16,4.15s-5.3,0-7.94,0a0.59,0.59,0,0,0-.74.67C111.46,55.37,110.74,59,110,66c-0.54,5.3-1.05,10.6-1.6,15.89-0.21,2-1.47,3-3.67,3H57.59c-2.37,0-3.53-1.15-3.74-3.49-0.51-5.46-1.08-7.67-1.63-13.13s-1.11-11-1.66-16.47c-0.11-1.12-.27-2.24-0.34-3.37a0.59,0.59,0,0,0-.74-0.67c-2.68,0-5.36,0-8,0s-4.07-1.42-4.07-4.06c0-13.21,0-26.42,0-39.62,0-2.19.67-3.74,2.75-4.56h82.17ZM81.15,44h34.48c0.35,0,.71,0,1.06,0a2.91,2.91,0,0,0,2.88-3q0-17.34,0-34.68a2.91,2.91,0,0,0-2.63-3,6.46,6.46,0,0,0-1,0h-70a3,3,0,0,0-3.17,3.25c0,1.26,0,2.52,0,3.78q0,15.16,0,30.32a3,3,0,0,0,2,3.21,5.38,5.38,0,0,0,1.82.18H81.15Z" transform="translate(-0.36 0.46)" fill="#1b365e"/><path d="M344.66,120L333.92,95.67c-3.54-8-7.07-16-10.8-24q-0.52,2.86-1,5.72-2.68,15-5.36,30.09c-0.49,2.73-1,5.46-1.43,8.19a0.82,0.82,0,0,1-1,.85c-3.36,0-6.72,0-10.08,0-0.65,0-.8-0.11-0.66-0.8q6-30.22,11.85-60.45,1.78-9.11,3.55-18.22c0-.25.13-0.49,0.24-0.89l25.62,58,26.58-58.12c0.5,2.82,1,5.4,1.41,8Q375.43,58.73,378,73.4q2.66,15.15,5.32,30.3,1,5.81,2.06,11.62c0.22,1.21.23,1.21-1,1.21-3.2,0-6.39,0-9.59,0a0.77,0.77,0,0,1-.93-0.78q-2.24-14.19-4.5-28.38c-0.83-5.22-1.68-10.44-2.57-16Z" transform="translate(-0.36 0.46)" fill="#1b365e"/><path d="M241.34,63.13a40.64,40.64,0,0,0-6.15-6.46c-10.19-8.5-25.73-7.2-34.78,1.05-7.46,6.8-10.32,15.29-9.17,25.13a28,28,0,0,0,22,24c10.6,2.32,22.11-3.66,26-13.5a23.85,23.85,0,0,0,1.12-4.19c0.18-.91-0.14-1-0.9-1-5.52,0-11,0-16.57,0-0.82,0-1.09-.14-1.07-1,0.07-2.94,0-5.88,0-8.82,0-.58.13-0.77,0.74-0.77q14.73,0,29.45,0c0.35,0,.69-0.08.7,0.5,0.07,6.19-.09,12.42-2.5,18.2-4.86,11.7-13.57,19-26.16,21.11-23.13,3.84-38.37-12.19-42.56-26-7.33-24.09,7.23-44.14,25.56-49.44,14.7-4.25,27.89-1.16,38.9,9.84,1,1,2,2.1,3,3.15,0.26,0.27.43,0.47,0,.84C246.45,58.22,243.92,60.66,241.34,63.13Z" transform="translate(-0.36 0.46)" fill="#1b365e"/><path d="M434.79,37l6.26,13.93,29,64.53c0.48,1.07.48,1.07-.64,1.07-3.42,0-6.85,0-10.27,0a1.22,1.22,0,0,1-1.36-.87c-2.35-5.51-4.75-11-7.1-16.51a1.15,1.15,0,0,0-1.27-.82q-15.07,0-30.13,0a1.32,1.32,0,0,0-1.4.95c-2.48,5.46-5,10.89-7.45,16.35a1.32,1.32,0,0,1-1.44.91c-3.36,0-6.72,0-10.08,0h-1.08ZM434.6,62.32L423,87.66h22.62Z" transform="translate(-0.36 0.46)" fill="#1b365e"/><path d="M503.39,93.49l3.6-8.9q8.5-21,17-42a1.18,1.18,0,0,1,1.32-.89q5.18,0.06,10.37,0c0.84,0,1,.09.67,1q-11,26.2-21.89,52.42l-10.94,26.21-0.35.83c-0.76-1.85-1.46-3.54-2.15-5.23l-30.15-74c-0.07-.18-0.14-0.36-0.23-0.53-0.25-.51-0.1-0.68.46-0.67,1.36,0,2.71,0,4.07,0,2.2,0,4.39,0,6.59,0a1.24,1.24,0,0,1,1.39,1q9.78,24.6,19.59,49.18C502.91,92.34,503.12,92.84,503.39,93.49Z" transform="translate(-0.36 0.46)" fill="#1b365e"/><path d="M283.14,79.09v36.13c0,1.3,0,1.3-1.35,1.3-2.91,0-5.81,0-8.72,0-0.94,0-1.23-.16-1.23-1.18q0.06-23,0-45.91c0-8.91,0-17.82,0-26.74,0-.77.14-1,1-1q4.7,0.08,9.4,0c0.81,0,.93.26,0.92,1Q283.12,60.88,283.14,79.09Z" transform="translate(-0.36 0.46)" fill="#1b365e"/><path d="M440,178.68l11,15.2c-2.23,0-4.25,0-6.27,0a1,1,0,0,1-.83-0.7q-4.55-6.5-9.09-13a4.4,4.4,0,0,1-.38-0.56,0.76,0.76,0,0,0-1-.38c-0.41.1-.22,0.49-0.22,0.74,0,4.3,0,8.59,0,12.89,0,0.89-.26,1.09-1.09,1-1.19-.07-2.39,0-3.58,0-0.57,0-.79-0.11-0.79-0.74q0-17.2,0-34.4c0-.35-0.08-0.71.5-0.69,3.8,0.1,7.62-.28,11.39.56,4.86,1.09,7.94,4.55,8.11,9.16,0.21,5.47-2.39,9.2-7.44,10.72A4.16,4.16,0,0,0,440,178.68Zm-6.76-9.86c0,1.68,0,3.35,0,5,0,0.37,0,.68.53,0.68a14.85,14.85,0,0,0,5.51-.73c2.3-.91,3.38-2.71,3.3-5.44a4.72,4.72,0,0,0-3.62-4.68,17.07,17.07,0,0,0-5-.54,0.61,0.61,0,0,0-.77.76C433.31,165.54,433.28,167.18,433.28,168.83Z" transform="translate(-0.36 0.46)" fill="#1b365e"/><path d="M378.59,170.81c0-3.94,0-7.88,0-11.82,0-.78.23-1,1-0.94a32,32,0,0,0,3.58,0c0.76,0,.9.21,0.9,0.91q0,7.85,0,15.69a52.29,52.29,0,0,0,.28,8.51,7.14,7.14,0,0,0,6.84,6.25,7.39,7.39,0,0,0,7.78-4.53,11.74,11.74,0,0,0,.71-4.08c0-7.23,0-14.46,0-21.7,0-.85.19-1.12,1.06-1.06a27.68,27.68,0,0,0,3.48,0c0.72,0,.91.16,0.91,0.89,0,5.52,0,11,0,16.56a54.77,54.77,0,0,1-.17,8,12.81,12.81,0,0,1-11.71,10.93A13,13,0,0,1,379,184.63a17,17,0,0,1-.38-4Q378.58,175.7,378.59,170.81Z" transform="translate(-0.36 0.46)" fill="#1b365e"/><path d="M470.63,175.95c0-5.62,0-11.24,0-16.86,0-.77.13-1,1-1,6,0,12,0,17.93,0,0.65,0,.9.13,0.87,0.83a34.54,34.54,0,0,0,0,3.49c0,0.67-.22.79-0.83,0.79-4.17,0-8.33,0-12.5,0-0.79,0-1.06.18-1,1,0.06,2.19.05,4.39,0,6.59,0,0.79.18,1,1,1,4,0,8,0,12,0,0.7,0,1,.14.92,0.9a29.57,29.57,0,0,0,0,3.39c0,0.7-.2.85-0.87,0.85-4,0-8.07,0-12.11,0-0.74,0-1,.17-1,0.94,0,3.36,0,6.72,0,10.08,0,0.71.16,0.93,0.9,0.93,4.17,0,8.33,0,12.5,0,0.78,0,1,.21,1,1-0.06,1.16,0,2.32,0,3.49,0,0.46-.06.7-0.62,0.7q-9.25,0-18.51,0c-0.77,0-.62-0.47-0.62-0.9q0-6.54,0-13.08v-4Z" transform="translate(-0.36 0.46)" fill="#1b365e"/><path d="M320.47,166.3c-8-6.5-16.11-3.62-19.79,1a14.08,14.08,0,0,0,.22,17.6,12.78,12.78,0,0,0,9.58,4.53c3.85,0.14,7-1.52,10-4.15v4.06c0,2.75,0,2.75-2.56,3.77a18.56,18.56,0,0,1-25.19-12.65,18.8,18.8,0,0,1,15.76-22.93,18.31,18.31,0,0,1,11.33,2.07,1.08,1.08,0,0,1,.69,1.11C320.45,162.53,320.47,164.33,320.47,166.3Z" transform="translate(-0.36 0.46)" fill="#1b365e"/><path d="M226,175.95c0-5.65,0-11.3,0-16.94,0-.77.2-1,1-0.94,3.51,0.1,7-.18,10.53.36A10.12,10.12,0,0,1,246,169.36c-0.39,6.31-5.06,9.29-9.86,9.84a24.54,24.54,0,0,1-4,.14c-0.67,0-.86.14-0.86,0.84,0,4.26,0,8.52,0,12.78,0,0.79-.24,1-1,0.94a34.09,34.09,0,0,0-3.58,0c-0.74,0-.9-0.2-0.9-0.92C226,187.31,226,181.63,226,175.95Zm5.42-7.24c0,1.64,0,3.29,0,4.93,0,0.33-.12.71,0.48,0.71a16.23,16.23,0,0,0,5.54-.62,5,5,0,0,0,3.42-5.17,4.8,4.8,0,0,0-3.5-4.88,16.55,16.55,0,0,0-5.45-.6c-0.58,0-.5.34-0.5,0.69Q231.37,166.24,231.37,168.7Z" transform="translate(-0.36 0.46)" fill="#1b365e"/><path d="M351.35,178.61c0,4.81,0,9.62,0,14.43,0,0.67-.15.9-0.85,0.86a27.6,27.6,0,0,0-3.58,0c-0.93.08-1-.3-1-1.09q0-14.19,0-28.38c0-1.28,0-1.28-1.27-1.28-2,0-4.07,0-6.1,0-0.59,0-.86-0.09-0.83-0.77,0.06-1.22,0-2.45,0-3.68,0-.51.15-0.65,0.66-0.65q10.27,0,20.53,0c0.54,0,.64.2,0.63,0.68,0,1.23,0,2.45,0,3.68,0,0.61-.18.76-0.76,0.75-2.16,0-4.33,0-6.49,0-0.74,0-1,.15-1,0.94C351.37,168.92,351.35,173.76,351.35,178.61Z" transform="translate(-0.36 0.46)" fill="#1b365e"/><path d="M265.81,175.9c0-5.65,0-11.3,0-16.94,0-.72.17-0.94,0.9-0.9a33.51,33.51,0,0,0,3.58,0c0.74,0,1,.15,1,0.94,0,3.1,0,6.2,0,9.3,0,8.2,0,16.4,0,24.59,0,0.8-.21,1.06-1,1a34.54,34.54,0,0,0-3.58,0c-0.69,0-.86-0.19-0.86-0.86C265.82,187.33,265.81,181.62,265.81,175.9Z" transform="translate(-0.36 0.46)" fill="#1b365e"/><path d="M46.41,141.16a34.76,34.76,0,1,1,34.8,34.9A34.7,34.7,0,0,1,46.41,141.16Z" transform="translate(-0.36 0.46)" fill="#80ba27"/></svg>