<svg id="Capa_1" data-name="Capa 1" xmlns="http://www.w3.org/2000/svg" width="203.59" height="72" viewBox="0 0 203.59 72"><title>Sin título-1</title><path d="M0.41,38.28a1.31,1.31,0,0,0,.16-0.53,5.23,5.23,0,0,1,4.94-3.9c0.82,0,1.65,0,2.47,0a0.48,0.48,0,0,0,.49-0.24A1.51,1.51,0,0,1,9.26,33a4.84,4.84,0,0,1,3.62,0,1.65,1.65,0,0,1,.88.7,0.22,0.22,0,0,0,.22.13H54.71a5.23,5.23,0,0,1,5.13,3.6,5.65,5.65,0,0,1,.26,1.79c0,3,0,6.06,0,9.09,0,0.36.1,0.41,0.43,0.41H203.77A0.18,0.18,0,0,1,204,49c0,0.48,0,1,0,1.43a0.16,0.16,0,0,1-.21.2H60.32c-0.16,0-.25,0-0.23.22a2,2,0,0,1,0,.25c0,5.14,0,10.28,0,15.42a5.17,5.17,0,0,1-4,5.05,5.91,5.91,0,0,1-1.45.15H5.82A5.19,5.19,0,0,1,.48,67.31a0.41,0.41,0,0,0-.07-0.11V38.28ZM30.25,68A15.62,15.62,0,1,0,14.64,52.28,15.62,15.62,0,0,0,30.25,68Z" transform="translate(-0.41)" fill="#fff"/><path d="M45.42,0a1.57,1.57,0,0,1,1,1.68c0,4.86,0,9.73,0,14.59a1.35,1.35,0,0,1-1.54,1.53H42a0.22,0.22,0,0,0-.27.25c-0.25,2.56-.51,3.92-0.77,6.48-0.2,2-.39,3.91-0.59,5.87A1.18,1.18,0,0,1,39,31.51H21.54a1.24,1.24,0,0,1-1.38-1.29c-0.19-2-.4-2.83-0.6-4.85L18.94,19.3c0-.41-0.1-0.83-0.12-1.24a0.22,0.22,0,0,0-.27-0.25h-3a1.35,1.35,0,0,1-1.5-1.5c0-4.88,0-9.75,0-14.63a1.57,1.57,0,0,1,1-1.68H45.42ZM30.24,16.42H43.36a1.08,1.08,0,0,0,1.06-1.12q0-6.4,0-12.8a1.08,1.08,0,0,0-1-1.1,2.39,2.39,0,0,0-.36,0H17.24a1.12,1.12,0,0,0-1.17,1.2c0,0.46,0,.93,0,1.39q0,5.6,0,11.19a1.12,1.12,0,0,0,.73,1.19,2,2,0,0,0,.67.07H30.24Z" transform="translate(-0.41)" fill="#fff"/><path d="M127.54,44.46l-4-9c-1.31-3-2.61-5.91-4-8.86l-0.38,2.11-2,11.11c-0.18,1-.36,2-0.53,3a0.3,0.3,0,0,1-.36.32c-1.24,0-2.48,0-3.72,0-0.24,0-.29,0-0.24-0.3q2.2-11.16,4.38-22.32l1.31-6.73c0-.09,0-0.18.09-0.33L127.61,35l9.81-21.46,0.52,2.95,1.91,10.83,2,11.19q0.38,2.15.76,4.29c0.08,0.45.08,0.45-.37,0.45-1.18,0-2.36,0-3.54,0a0.28,0.28,0,0,1-.34-0.29q-0.83-5.24-1.66-10.48c-0.31-1.93-.62-3.86-0.95-5.9Z" transform="translate(-0.41)" fill="#fff"/><path d="M89.39,23.48a15,15,0,0,0-2.27-2.39,10,10,0,0,0-12.84.39,10.27,10.27,0,0,0-3.39,9.28A10.32,10.32,0,0,0,79,39.61a8.57,8.57,0,0,0,9.6-5A8.81,8.81,0,0,0,89,33.07c0.07-.34-0.05-0.36-0.33-0.36H82.57c-0.3,0-.4-0.05-0.4-0.38,0-1.08,0-2.17,0-3.26,0-.21,0-0.28.27-0.28H93.33c0.13,0,.26,0,0.26.18a16.74,16.74,0,0,1-.92,6.72A12.13,12.13,0,0,1,83,43.51a13.91,13.91,0,0,1-15.71-9.58,14.27,14.27,0,0,1,9.44-18.25A13.72,13.72,0,0,1,91.1,19.3c0.38,0.38.74,0.78,1.11,1.16,0.1,0.1.16,0.17,0,.31C91.27,21.67,90.34,22.57,89.39,23.48Z" transform="translate(-0.41)" fill="#fff"/><path d="M160.82,13.83L163.13,19,173.82,42.8c0.18,0.4.18,0.4-.24,0.4-1.26,0-2.53,0-3.79,0a0.45,0.45,0,0,1-.5-0.32c-0.87-2-1.75-4.06-2.62-6.1a0.43,0.43,0,0,0-.47-0.3q-5.56,0-11.13,0a0.49,0.49,0,0,0-.52.35c-0.91,2-1.84,4-2.75,6a0.49,0.49,0,0,1-.53.34c-1.24,0-2.48,0-3.72,0h-0.4Zm-0.07,9.35-4.27,9.35h8.35Z" transform="translate(-0.41)" fill="#fff"/><path d="M186.14,34.69l1.33-3.29q3.14-7.75,6.27-15.51a0.44,0.44,0,0,1,.49-0.33q1.91,0,3.83,0c0.31,0,.38,0,0.25.36q-4.05,9.67-8.08,19.35l-4,9.68-0.13.31-0.79-1.93L174.12,16c0-.07-0.05-0.13-0.08-0.2s0-.25.17-0.25h1.5c0.81,0,1.62,0,2.43,0a0.46,0.46,0,0,1,.51.36q3.61,9.08,7.23,18.16Z" transform="translate(-0.41)" fill="#fff"/><path d="M104.82,29.37V42.71c0,0.48,0,.48-0.5.48-1.07,0-2.15,0-3.22,0-0.35,0-.45-0.06-0.45-0.44q0-8.48,0-17c0-3.29,0-6.58,0-9.87,0-.29.05-0.38,0.36-0.38q1.73,0,3.47,0c0.3,0,.34.1,0.34,0.36Q104.81,22.65,104.82,29.37Z" transform="translate(-0.41)" fill="#fff"/><path d="M162.75,66.15l4.07,5.61h-2.31a0.37,0.37,0,0,1-.31-0.26l-3.35-4.81a1.62,1.62,0,0,1-.14-0.21,0.28,0.28,0,0,0-.36-0.14c-0.15,0-.08.18-0.08,0.27,0,1.59,0,3.17,0,4.76,0,0.33-.1.4-0.4,0.38s-0.88,0-1.32,0c-0.21,0-.29,0-0.29-0.27q0-6.35,0-12.7c0-.13,0-0.26.18-0.26a21.67,21.67,0,0,1,4.21.21,3.56,3.56,0,0,1,3,3.38,3.64,3.64,0,0,1-2.75,4Zm-2.49-3.64c0,0.62,0,1.24,0,1.86,0,0.14,0,.25.19,0.25a5.48,5.48,0,0,0,2-.27,1.88,1.88,0,0,0,1.22-2,1.74,1.74,0,0,0-1.33-1.73,6.3,6.3,0,0,0-1.84-.2,0.23,0.23,0,0,0-.28.28C160.27,61.29,160.26,61.9,160.26,62.51Z" transform="translate(-0.41)" fill="#fff"/><path d="M140.06,63.24c0-1.45,0-2.91,0-4.36,0-.29.09-0.36,0.36-0.35a11.8,11.8,0,0,0,1.32,0c0.28,0,.33.08,0.33,0.34q0,2.9,0,5.79a19.31,19.31,0,0,0,.1,3.14,2.64,2.64,0,0,0,2.52,2.31,2.73,2.73,0,0,0,2.87-1.67,4.33,4.33,0,0,0,.26-1.51c0-2.67,0-5.34,0-8,0-.31.07-0.41,0.39-0.39a10.22,10.22,0,0,0,1.29,0c0.27,0,.34.06,0.34,0.33,0,2,0,4.08,0,6.12a20.22,20.22,0,0,1-.06,3,4.73,4.73,0,0,1-4.33,4,4.82,4.82,0,0,1-5.24-3.63,6.27,6.27,0,0,1-.14-1.49Q140.06,65,140.06,63.24Z" transform="translate(-0.41)" fill="#fff"/><path d="M174,65.14c0-2.08,0-4.15,0-6.23,0-.28,0-0.38.36-0.38,2.21,0,4.41,0,6.62,0,0.24,0,.33,0,0.32.31a12.75,12.75,0,0,0,0,1.29c0,0.25-.08.29-0.31,0.29-1.54,0-3.08,0-4.62,0-0.29,0-.39.07-0.38,0.37,0,0.81,0,1.62,0,2.43,0,0.29.07,0.39,0.37,0.38,1.48,0,3,0,4.44,0,0.26,0,.36.05,0.34,0.33a10.92,10.92,0,0,0,0,1.25c0,0.26-.07.31-0.32,0.31H176.4c-0.27,0-.36.06-0.36,0.35,0,1.24,0,2.48,0,3.72,0,0.26.06,0.34,0.33,0.34,1.54,0,3.08,0,4.62,0,0.29,0,.37.08,0.35,0.36s0,0.86,0,1.29c0,0.17,0,.26-0.23.26h-6.83c-0.28,0-.23-0.17-0.23-0.33q0-2.42,0-4.83V65.14Z" transform="translate(-0.41)" fill="#fff"/><path d="M118.61,61.57c-2.94-2.4-5.95-1.34-7.31.38a5.2,5.2,0,0,0,.08,6.5,4.72,4.72,0,0,0,3.54,1.67,5.2,5.2,0,0,0,3.69-1.53v1.5c0,1,0,1-.95,1.39a6.85,6.85,0,0,1-9.3-4.67,6.94,6.94,0,0,1,5.82-8.47,6.76,6.76,0,0,1,4.18.76,0.4,0.4,0,0,1,.26.41C118.6,60.18,118.61,60.85,118.61,61.57Z" transform="translate(-0.41)" fill="#fff"/><path d="M83.71,65.14c0-2.09,0-4.17,0-6.26,0-.28.07-0.36,0.35-0.35a30.88,30.88,0,0,1,3.89.13,3.74,3.74,0,0,1,3.18,4,3.81,3.81,0,0,1-3.64,3.63,9.06,9.06,0,0,1-1.46.05c-0.25,0-.32.05-0.32,0.31,0,1.57,0,3.15,0,4.72,0,0.29-.09.36-0.36,0.35a12.59,12.59,0,0,0-1.32,0c-0.28,0-.33-0.07-0.33-0.34C83.71,69.33,83.71,67.23,83.71,65.14Zm2-2.67c0,0.61,0,1.21,0,1.82,0,0.12,0,.26.18,0.26a6,6,0,0,0,2-.23,1.84,1.84,0,0,0,1.26-1.91,1.77,1.77,0,0,0-1.29-1.8,6.11,6.11,0,0,0-2-.22c-0.21,0-.18.13-0.18,0.25Q85.71,61.55,85.71,62.46Z" transform="translate(-0.41)" fill="#fff"/><path d="M130,66.12c0,1.78,0,3.55,0,5.33,0,0.25-.06.33-0.31,0.32a10.19,10.19,0,0,0-1.32,0c-0.34,0-.38-0.11-0.38-0.4q0-5.24,0-10.48c0-.47,0-0.47-0.47-0.47h-2.25c-0.22,0-.32,0-0.31-0.29,0-.45,0-0.91,0-1.36,0-.19.06-0.24,0.24-0.24h7.58c0.2,0,.24.07,0.23,0.25,0,0.45,0,.91,0,1.36,0,0.23-.07.28-0.28,0.28-0.8,0-1.6,0-2.4,0-0.27,0-.36.05-0.36,0.35C130,62.54,130,64.33,130,66.12Z" transform="translate(-0.41)" fill="#fff"/><path d="M98.42,65.12c0-2.09,0-4.17,0-6.26,0-.27.06-0.35,0.33-0.33a12.37,12.37,0,0,0,1.32,0c0.27,0,.36.06,0.36,0.35,0,1.14,0,2.29,0,3.43,0,3,0,6.05,0,9.08,0,0.3-.08.39-0.37,0.37a12.76,12.76,0,0,0-1.32,0c-0.25,0-.32-0.07-0.32-0.32C98.43,69.34,98.42,67.23,98.42,65.12Z" transform="translate(-0.41)" fill="#fff"/><path d="M17.41,52.29A12.84,12.84,0,1,1,30.26,65.18,12.81,12.81,0,0,1,17.41,52.29Z" transform="translate(-0.41)" fill="#fff"/></svg>